HIERARCHY
ROOT Hips
{
	OFFSET 0.000000 97.167313 0.000000
	CHANNELS 6 Xposition Yposition Zposition Xrotation Yrotation Zrotation
	JOINT Spine
	{
		OFFSET 0.000000 13.784798 0.064400
		CHANNELS 3 Xrotation Yrotation Zrotation
		JOINT Spine1
		{
			OFFSET 0.000000 12.037903 0.404700
			CHANNELS 3 Xrotation Yrotation Zrotation
			JOINT Spine2
			{
				OFFSET 0.000000 17.795601 0.420200
				CHANNELS 3 Xrotation Yrotation Zrotation
				JOINT Neck
				{
					OFFSET 0.000000 39.131302 11.954600
					CHANNELS 3 Xrotation Yrotation Zrotation
					JOINT Head
					{
						OFFSET 0.000000 14.456192 15.627699
						CHANNELS 3 Xrotation Yrotation Zrotation
						JOINT HeadTop_End
						{
							OFFSET 0.000000 15.703506 7.603401
							CHANNELS 3 Xrotation Yrotation Zrotation
							End Site
							{
								OFFSET 0.000000 17.447403 0.000000
							}
						}
					}
				}
				JOINT LeftShoulder
				{
					OFFSET 17.399500 24.608795 1.168800
					CHANNELS 3 Xrotation Yrotation Zrotation
					JOINT LeftArm
					{
						OFFSET 18.980635 5.765305 1.818600
						CHANNELS 3 Xrotation Yrotation Zrotation
						JOINT LeftForeArm
						{
							OFFSET 49.290169 0.000000 0.000000
							CHANNELS 3 Xrotation Yrotation Zrotation
							JOINT LeftHand
							{
								OFFSET 31.562012 0.000000 0.000000
								CHANNELS 3 Xrotation Yrotation Zrotation
								JOINT LeftHandThumb1
								{
									OFFSET 6.133995 -4.388519 7.076070
									CHANNELS 3 Xrotation Yrotation Zrotation
									JOINT LeftHandThumb2
									{
										OFFSET 6.037666 -3.485840 3.485847
										CHANNELS 3 Xrotation Yrotation Zrotation
										JOINT LeftHandThumb3
										{
											OFFSET 6.496506 -3.750763 3.750761
											CHANNELS 3 Xrotation Yrotation Zrotation
											JOINT LeftHandThumb4
											{
												OFFSET 5.616882 -3.242905 3.242910
												CHANNELS 3 Xrotation Yrotation Zrotation
												End Site
												{
													OFFSET -1.254608 7.132141 0.375429
												}
											}
										}
									}
								}
								JOINT LeftHandPinky1
								{
									OFFSET 18.920792 -0.453171 -11.426712
									CHANNELS 3 Xrotation Yrotation Zrotation
									JOINT LeftHandPinky2
									{
										OFFSET 4.919586 0.000000 0.000000
										CHANNELS 3 Xrotation Yrotation Zrotation
										JOINT LeftHandPinky3
										{
											OFFSET 5.233047 0.000000 0.000000
											CHANNELS 3 Xrotation Yrotation Zrotation
											JOINT LeftHandPinky4
											{
												OFFSET 5.571716 0.000000 0.000000
												CHANNELS 3 Xrotation Yrotation Zrotation
												End Site
												{
													OFFSET -3.459808 4.342407 -0.466164
												}
											}
										}
									}
								}
								JOINT LeftHandRing1
								{
									OFFSET 22.726120 -0.094986 -6.500475
									CHANNELS 3 Xrotation Yrotation Zrotation
									JOINT LeftHandRing2
									{
										OFFSET 6.408615 0.000000 0.000000
										CHANNELS 3 Xrotation Yrotation Zrotation
										JOINT LeftHandRing3
										{
											OFFSET 6.150223 0.000000 0.000000
											CHANNELS 3 Xrotation Yrotation Zrotation
											JOINT LeftHandRing4
											{
												OFFSET 6.145386 0.000000 0.000000
												CHANNELS 3 Xrotation Yrotation Zrotation
												End Site
												{
													OFFSET -3.671402 4.923981 -0.202372
												}
											}
										}
									}
								}
								JOINT LeftHandMiddle1
								{
									OFFSET 23.373947 0.000000 0.000001
									CHANNELS 3 Xrotation Yrotation Zrotation
									JOINT LeftHandMiddle2
									{
										OFFSET 6.996567 0.000000 0.000000
										CHANNELS 3 Xrotation Yrotation Zrotation
										JOINT LeftHandMiddle3
										{
											OFFSET 7.015945 0.000000 0.000000
											CHANNELS 3 Xrotation Yrotation Zrotation
											JOINT LeftHandMiddle4
											{
												OFFSET 7.721573 0.000000 0.000000
												CHANNELS 3 Xrotation Yrotation Zrotation
												End Site
												{
													OFFSET -4.651108 6.158463 0.251582
												}
											}
										}
									}
								}
								JOINT LeftHandIndex1
								{
									OFFSET 21.310577 -0.490082 6.209344
									CHANNELS 3 Xrotation Yrotation Zrotation
									JOINT LeftHandIndex2
									{
										OFFSET 7.536453 0.000000 0.000000
										CHANNELS 3 Xrotation Yrotation Zrotation
										JOINT LeftHandIndex3
										{
											OFFSET 7.512344 0.000000 0.000000
											CHANNELS 3 Xrotation Yrotation Zrotation
											JOINT LeftHandIndex4
											{
												OFFSET 10.212402 0.000000 0.000001
												CHANNELS 3 Xrotation Yrotation Zrotation
												End Site
												{
													OFFSET -5.180801 8.690506 1.388433
												}
											}
										}
									}
								}
							}
						}
					}
				}
				JOINT RightShoulder
				{
					OFFSET -17.399500 24.608795 1.168800
					CHANNELS 3 Xrotation Yrotation Zrotation
					JOINT RightArm
					{
						OFFSET -18.980635 5.765305 1.818600
						CHANNELS 3 Xrotation Yrotation Zrotation
						JOINT RightForeArm
						{
							OFFSET -49.290169 0.000000 0.000000
							CHANNELS 3 Xrotation Yrotation Zrotation
							JOINT RightHand
							{
								OFFSET -31.562012 0.000000 0.000000
								CHANNELS 3 Xrotation Yrotation Zrotation
								JOINT RightHandThumb1
								{
									OFFSET -6.133995 -4.388519 7.076070
									CHANNELS 3 Xrotation Yrotation Zrotation
									JOINT RightHandThumb2
									{
										OFFSET -6.037666 -3.485840 3.485847
										CHANNELS 3 Xrotation Yrotation Zrotation
										JOINT RightHandThumb3
										{
											OFFSET -6.496506 -3.750763 3.750761
											CHANNELS 3 Xrotation Yrotation Zrotation
											JOINT RightHandThumb4
											{
												OFFSET -5.616882 -3.242905 3.242910
												CHANNELS 3 Xrotation Yrotation Zrotation
												End Site
												{
													OFFSET 1.254608 7.132141 0.375429
												}
											}
										}
									}
								}
								JOINT RightHandIndex1
								{
									OFFSET -21.310577 -0.490082 6.209344
									CHANNELS 3 Xrotation Yrotation Zrotation
									JOINT RightHandIndex2
									{
										OFFSET -7.536453 0.000000 0.000000
										CHANNELS 3 Xrotation Yrotation Zrotation
										JOINT RightHandIndex3
										{
											OFFSET -7.512344 0.000000 0.000000
											CHANNELS 3 Xrotation Yrotation Zrotation
											JOINT RightHandIndex4
											{
												OFFSET -10.212402 0.000000 0.000001
												CHANNELS 3 Xrotation Yrotation Zrotation
												End Site
												{
													OFFSET 5.180801 8.690506 1.388433
												}
											}
										}
									}
								}
								JOINT RightHandMiddle1
								{
									OFFSET -23.373947 0.000000 0.000001
									CHANNELS 3 Xrotation Yrotation Zrotation
									JOINT RightHandMiddle2
									{
										OFFSET -6.996567 0.000000 0.000000
										CHANNELS 3 Xrotation Yrotation Zrotation
										JOINT RightHandMiddle3
										{
											OFFSET -7.015945 0.000000 0.000000
											CHANNELS 3 Xrotation Yrotation Zrotation
											JOINT RightHandMiddle4
											{
												OFFSET -7.721573 0.000000 0.000000
												CHANNELS 3 Xrotation Yrotation Zrotation
												End Site
												{
													OFFSET 4.651108 6.158463 0.251582
												}
											}
										}
									}
								}
								JOINT RightHandRing1
								{
									OFFSET -22.726120 -0.094986 -6.500475
									CHANNELS 3 Xrotation Yrotation Zrotation
									JOINT RightHandRing2
									{
										OFFSET -6.408615 0.000000 0.000000
										CHANNELS 3 Xrotation Yrotation Zrotation
										JOINT RightHandRing3
										{
											OFFSET -6.150223 0.000000 0.000000
											CHANNELS 3 Xrotation Yrotation Zrotation
											JOINT RightHandRing4
											{
												OFFSET -6.145386 0.000000 0.000000
												CHANNELS 3 Xrotation Yrotation Zrotation
												End Site
												{
													OFFSET 3.671402 4.923981 -0.202372
												}
											}
										}
									}
								}
								JOINT RightHandPinky1
								{
									OFFSET -18.920792 -0.453171 -11.426712
									CHANNELS 3 Xrotation Yrotation Zrotation
									JOINT RightHandPinky2
									{
										OFFSET -4.919586 0.000000 0.000000
										CHANNELS 3 Xrotation Yrotation Zrotation
										JOINT RightHandPinky3
										{
											OFFSET -5.233047 0.000000 0.000000
											CHANNELS 3 Xrotation Yrotation Zrotation
											JOINT RightHandPinky4
											{
												OFFSET -5.571716 0.000000 0.000000
												CHANNELS 3 Xrotation Yrotation Zrotation
												End Site
												{
													OFFSET 3.459808 4.342407 -0.466164
												}
											}
										}
									}
								}
							}
						}
					}
				}
			}
		}
	}
	JOINT LeftUpLeg
	{
		OFFSET 19.899099 -7.885101 -3.429500
		CHANNELS 3 Xrotation Yrotation Zrotation
		JOINT LeftLeg
		{
			OFFSET 1.745560 -36.997807 10.304700
			CHANNELS 3 Xrotation Yrotation Zrotation
			JOINT LeftFoot
			{
				OFFSET -1.745558 -29.803308 -13.615400
				CHANNELS 3 Xrotation Yrotation Zrotation
				JOINT LeftToeBase
				{
					OFFSET 1.181900 -18.539904 15.226099
					CHANNELS 3 Xrotation Yrotation Zrotation
					JOINT LeftToe_End
					{
						OFFSET -0.863701 1.402801 16.534700
						CHANNELS 3 Xrotation Yrotation Zrotation
						End Site
						{
							OFFSET 0.000000 16.616566 0.000000
						}
					}
				}
			}
		}
	}
	JOINT RightUpLeg
	{
		OFFSET -19.899099 -7.885101 -3.429500
		CHANNELS 3 Xrotation Yrotation Zrotation
		JOINT RightLeg
		{
			OFFSET -1.745560 -36.997807 10.304700
			CHANNELS 3 Xrotation Yrotation Zrotation
			JOINT RightFoot
			{
				OFFSET 1.745558 -29.803308 -13.615400
				CHANNELS 3 Xrotation Yrotation Zrotation
				JOINT RightToeBase
				{
					OFFSET -1.181900 -18.539904 15.226099
					CHANNELS 3 Xrotation Yrotation Zrotation
					JOINT RightToe_End
					{
						OFFSET 0.863701 1.402801 16.534700
						CHANNELS 3 Xrotation Yrotation Zrotation
						End Site
						{
							OFFSET 0.000000 16.616566 0.000000
						}
					}
				}
			}
		}
	}
}
MOTION
Frames: 5
Frame Time: 0.033333
-37.097221 67.400589 -138.704544 22.914451 -5.803227 2.023561 23.325986 10.503266 -1.930187 12.814357 0.674798 -0.617689 12.122316 1.159729 -0.710991 -9.250505 -42.300263 5.408961 -0.067902 -22.519924 24.981671 -0.000000 0.000001 0.000001 -1.485034 -14.469109 15.147690 2.185195 -6.870702 -70.716712 -1.987811 -31.400903 -0.158828 -17.678797 -20.199572 -17.386236 -9.331541 3.471387 -7.771912 -3.526445 5.992588 -11.731702 -5.298479 -23.916411 0.005860 0.000001 -0.000001 -0.000001 0.000698 20.812471 -16.406956 -0.017048 -0.031994 -51.783858 -0.978634 -1.238075 -38.752683 -0.000001 -0.000002 -0.000001 3.582716 12.303620 -16.370758 -0.016416 -0.033061 -52.623520 0.347374 0.430503 -37.464711 -0.000002 0.000001 0.000002 -0.428355 -3.917212 -6.247913 -0.001102 -0.009769 -15.259826 -0.000003 -0.003320 -5.335871 -0.000000 0.000000 0.000004 2.950629 -12.213416 7.303432 -0.001897 -0.013112 -14.886843 0.118740 1.823907 -2.114282 0.000001 0.000003 0.000001 -14.000098 0.938047 -13.395825 -59.414012 -9.456929 47.896165 -5.723760 67.277671 6.294977 54.456340 19.789981 -45.239434 -4.453610 -7.293475 20.381112 0.000587 -8.684426 0.000697 0.008992 -20.048046 0.012252 -0.000001 -0.000001 -0.000000 -0.000512 -0.006685 -8.932506 -0.000523 0.007209 6.265808 0.110598 -1.827333 1.855357 -0.000001 -0.000001 -0.000001 -0.000041 0.002633 3.005829 -0.000326 0.004838 6.344393 -0.000159 0.002582 4.029548 0.000001 0.000000 -0.000001 2.546343 -5.987579 23.063903 -0.002735 0.015388 21.773016 -0.003958 0.018287 25.630956 0.000000 0.000001 -0.000003 8.673203 -16.457436 33.264531 -0.008749 0.026293 37.071545 -0.018899 0.034397 59.657891 -0.000001 0.000000 -0.000001 -84.956208 -9.844104 12.608339 16.638988 -2.357821 2.346547 51.575455 -4.529509 -12.039989 -0.505067 -1.943363 -0.000167 0.000000 -0.000000 0.000001 -14.176541 6.544651 -7.576276 62.325381 -9.756392 -7.475341 -47.922496 -10.427627 12.933687 -27.021444 -4.164867 10.483380 0.000000 -0.000001 -0.000000 
-38.880657 67.486374 -143.663315 23.406777 -4.388338 3.107686 23.467077 8.672630 -1.984199 12.884491 0.063326 -0.902567 12.167697 0.607841 -1.031444 -9.402896 -41.617596 3.992503 0.634172 -22.400801 26.284807 0.000003 -0.000001 -0.000000 -1.489805 -14.166528 15.195076 3.737520 -4.704974 -71.933264 -1.918672 -31.030004 -0.552641 -17.889649 -19.664543 -17.881471 -9.331540 3.471382 -7.771912 -3.526443 5.992585 -11.731706 -5.298479 -23.916415 0.005863 0.000001 -0.000000 0.000000 0.000696 20.812467 -16.406953 -0.017046 -0.031988 -51.783861 -0.978632 -1.238075 -38.752683 0.000002 -0.000002 -0.000001 3.582717 12.303619 -16.370756 -0.016414 -0.033064 -52.623524 0.347374 0.430503 -37.464721 -0.000001 -0.000001 0.000005 -0.428354 -3.917213 -6.247910 -0.001104 -0.009770 -15.259826 0.000000 -0.003319 -5.335872 0.000001 -0.000002 0.000004 2.950633 -12.213409 7.303434 -0.001898 -0.013118 -14.886845 0.118739 1.823912 -2.114282 -0.000002 0.000005 0.000002 -13.993678 1.231126 -13.292215 -58.542637 -8.458398 47.359743 -3.743132 68.425388 4.188760 54.494183 19.470967 -45.518665 -4.453610 -7.293477 20.381115 0.000588 -8.684428 0.000696 0.008992 -20.048048 0.012249 -0.000000 0.000000 0.000001 -0.000515 -0.006687 -8.932506 -0.000526 0.007205 6.265807 0.110600 -1.827332 1.855355 -0.000000 0.000000 -0.000001 -0.000042 0.002632 3.005834 -0.000325 0.004840 6.344395 -0.000158 0.002582 4.029548 -0.000001 0.000001 0.000003 2.546340 -5.987579 23.063910 -0.002734 0.015392 21.773014 -0.003957 0.018290 25.630961 -0.000001 -0.000001 -0.000005 8.673202 -16.457436 33.264534 -0.008751 0.026293 37.071542 -0.018896 0.034396 59.657884 0.000001 -0.000000 0.000002 -84.537033 -10.562298 9.013358 18.861361 -7.334450 2.956932 45.581244 -4.995337 -16.141929 -0.905407 -1.158103 -1.066161 -0.000000 -0.000000 0.000000 -19.485855 6.990609 -6.682608 66.706722 -10.454997 -6.836992 -50.823684 -9.939870 11.655632 -23.390425 -4.708387 9.378697 0.000000 -0.000002 -0.000000 
-40.264515 67.504860 -148.664276 24.210779 -1.643275 4.464740 23.616204 6.029457 -1.897449 13.228262 -0.436992 -1.121932 12.496513 0.079876 -1.253192 -11.005271 -41.553406 2.539433 1.253192 -22.425266 27.255001 -0.000001 -0.000003 0.000002 -1.484211 -14.024116 15.259689 3.996219 -3.233181 -72.576743 -1.477042 -29.766087 -1.279270 -18.058715 -19.228321 -18.261001 -9.331543 3.471384 -7.771907 -3.526444 5.992589 -11.731705 -5.298481 -23.916415 0.005863 -0.000000 -0.000000 0.000001 0.000695 20.812466 -16.406956 -0.017048 -0.031993 -51.783865 -0.978635 -1.238075 -38.752683 -0.000001 -0.000002 -0.000001 3.582716 12.303616 -16.370753 -0.016417 -0.033066 -52.623520 0.347377 0.430503 -37.464718 -0.000001 0.000000 -0.000000 -0.428356 -3.917215 -6.247913 -0.001105 -0.009767 -15.259831 -0.000001 -0.003320 -5.335875 0.000000 0.000000 0.000007 2.950631 -12.213418 7.303434 -0.001900 -0.013114 -14.886845 0.118741 1.823912 -2.114282 -0.000001 0.000005 0.000000 -13.992166 1.106191 -13.228833 -58.749175 -7.177532 46.917461 -1.174719 69.145919 1.652490 54.551116 19.457877 -45.633074 -4.453610 -7.293476 20.381112 0.000588 -8.684426 0.000695 0.008992 -20.048046 0.012249 0.000000 0.000003 0.000001 -0.000517 -0.006688 -8.932503 -0.000526 0.007210 6.265810 0.110600 -1.827331 1.855357 0.000000 0.000001 -0.000001 -0.000041 0.002631 3.005832 -0.000326 0.004839 6.344391 -0.000156 0.002579 4.029553 0.000001 -0.000001 -0.000007 2.546342 -5.987582 23.063908 -0.002735 0.015390 21.773019 -0.003958 0.018287 25.630959 0.000000 -0.000001 0.000002 8.673208 -16.457438 33.264538 -0.008750 0.026291 37.071545 -0.018898 0.034397 59.657891 -0.000000 -0.000000 0.000002 -84.288919 -10.881565 5.421312 25.002285 -9.362670 2.583865 36.172672 -4.535074 -20.056680 -2.741178 -1.470366 -2.620772 0.000000 -0.000002 0.000000 -26.100617 7.017974 -7.109557 72.180695 -10.986754 -5.519318 -51.445729 -9.830551 10.721792 -22.008130 -4.779699 8.883244 0.000000 -0.000000 -0.000000 
-41.445282 67.775375 -153.803162 25.437026 0.807996 5.244851 23.643905 4.248915 -1.537893 13.634306 -0.581145 -1.100483 12.898557 -0.141604 -1.208828 -13.544103 -42.112416 1.446871 1.484798 -22.555083 27.309818 0.000002 0.000002 0.000002 -1.475915 -14.083981 15.288221 3.055874 -3.362973 -72.757798 -1.274469 -28.683584 -1.908181 -18.404850 -18.524344 -19.124178 -9.331538 3.471386 -7.771909 -3.526443 5.992583 -11.731704 -5.298479 -23.916415 0.005861 0.000000 0.000001 -0.000002 0.000696 20.812464 -16.406956 -0.017046 -0.031988 -51.783861 -0.978638 -1.238076 -38.752677 0.000000 -0.000001 -0.000004 3.582718 12.303623 -16.370758 -0.016416 -0.033060 -52.623527 0.347376 0.430508 -37.464718 0.000004 0.000001 0.000005 -0.428353 -3.917207 -6.247910 -0.001101 -0.009774 -15.259833 -0.000001 -0.003320 -5.335875 -0.000001 0.000003 0.000007 2.950633 -12.213416 7.303432 -0.001901 -0.013112 -14.886848 0.118739 1.823916 -2.114285 0.000002 0.000006 0.000006 -13.995029 0.648537 -13.225434 -59.843898 -6.273438 46.558920 0.859696 69.165972 -0.187542 54.679424 19.761508 -45.680278 -4.453615 -7.293477 20.381112 0.000587 -8.684424 0.000698 0.008991 -20.048045 0.012250 -0.000000 0.000001 0.000002 -0.000516 -0.006688 -8.932503 -0.000526 0.007207 6.265809 0.110596 -1.827334 1.855360 -0.000001 -0.000001 -0.000003 -0.000043 0.002631 3.005830 -0.000328 0.004840 6.344392 -0.000158 0.002580 4.029549 0.000001 0.000001 -0.000004 2.546342 -5.987581 23.063903 -0.002735 0.015389 21.773016 -0.003958 0.018288 25.630956 0.000000 0.000001 -0.000007 8.673202 -16.457436 33.264527 -0.008749 0.026292 37.071545 -0.018897 0.034398 59.657891 0.000000 -0.000001 0.000000 -84.767067 -11.358775 3.556572 36.980929 -6.892822 1.527316 23.360133 -2.492970 -20.450379 -3.889683 -2.290302 -0.000569 -0.000000 0.000000 0.000000 -34.439815 6.662995 -7.847972 76.772583 -10.452097 -3.708719 -49.348141 -9.119654 9.384415 -21.544816 -4.154175 8.454802 0.000000 -0.000001 0.000000 
-42.896248 68.380692 -159.262756 26.899069 2.229384 5.248418 23.513454 3.616262 -1.089901 13.947406 -0.372729 -0.860703 13.216782 -0.041625 -0.927822 -16.004156 -42.952375 0.996315 1.439300 -22.657957 26.618700 -0.000000 0.000002 -0.000003 -1.473259 -14.222582 15.267517 1.524081 -4.652048 -72.621460 -1.287769 -28.238719 -2.093146 -18.827527 -17.684038 -20.259644 -9.331538 3.471383 -7.771912 -3.526443 5.992586 -11.731708 -5.298479 -23.916415 0.005859 -0.000002 -0.000002 0.000000 0.000699 20.812469 -16.406958 -0.017047 -0.031988 -51.783858 -0.978634 -1.238074 -38.752683 -0.000001 -0.000003 -0.000003 3.582718 12.303621 -16.370758 -0.016416 -0.033056 -52.623524 0.347374 0.430508 -37.464715 0.000004 0.000002 0.000007 -0.428356 -3.917210 -6.247915 -0.001106 -0.009766 -15.259833 0.000002 -0.003322 -5.335875 -0.000001 0.000002 0.000001 2.950634 -12.213418 7.303433 -0.001903 -0.013115 -14.886850 0.118739 1.823912 -2.114283 -0.000002 0.000003 0.000001 -13.995497 0.154290 -13.170613 -61.204280 -5.900168 46.302361 1.295815 68.864774 -0.478123 54.902468 20.260740 -45.789400 -4.453608 -7.293477 20.381115 0.000587 -8.684424 0.000698 0.008991 -20.048046 0.012247 0.000001 0.000001 0.000001 -0.000516 -0.006685 -8.932502 -0.000528 0.007209 6.265808 0.110599 -1.827336 1.855357 -0.000000 -0.000001 -0.000001 -0.000043 0.002631 3.005837 -0.000325 0.004841 6.344393 -0.000156 0.002580 4.029543 0.000001 -0.000000 -0.000004 2.546341 -5.987580 23.063910 -0.002735 0.015388 21.773017 -0.003959 0.018288 25.630963 0.000000 -0.000000 -0.000005 8.673205 -16.457436 33.264534 -0.008748 0.026290 37.071545 -0.018900 0.034395 59.657891 0.000001 -0.000001 0.000004 -84.007550 -11.004583 4.406835 50.756522 -0.056182 0.003693 13.307089 -0.338769 -16.996576 -6.811595 -1.201081 -0.401190 0.000000 0.000000 0.000000 -43.685262 5.965196 -7.746877 78.891567 -9.194311 -2.016633 -45.437680 -7.396151 7.409241 -20.104553 -3.551404 7.310036 -0.000000 -0.000001 -0.000000 
